<svg width="128" height="128" viewBox="0 0 128 128" fill="none" xmlns="http://www.w3.org/2000/svg">
<g clip-path="url(#clip0_838_201)">
<mask id="mask0_838_201" style="mask-type:luminance" maskUnits="userSpaceOnUse" x="0" y="0" width="128" height="128">
<path d="M128 0H0V128H128V0Z" fill="white"/>
</mask>
<g mask="url(#mask0_838_201)">
<path d="M101 25H26C19.9249 25 15 29.9249 15 36C15 42.0751 19.9249 47 26 47H101C107.075 47 112 42.0751 112 36C112 29.9249 107.075 25 101 25Z" fill="#AC7365"/>
<path d="M119.222 22.5693H8.77809C3.93799 22.5693 0 26.5073 0 31.3479V63.521C0 71.5696 6.54822 78.1178 14.5968 78.1178H113.404C121.452 78.1178 128 71.5696 128 63.521V31.3479C128 26.5073 124.063 22.5693 119.222 22.5693ZM19.0303 29.6131H108.97V37.9057C108.97 41.166 106.317 43.819 103.057 43.819H24.9436C21.6833 43.819 19.0308 41.1665 19.0308 37.9057L19.0303 29.6131ZM120.956 63.521C120.956 67.6854 117.568 71.074 113.403 71.074H14.5963C10.4319 71.074 7.0433 67.6859 7.0433 63.521V31.3479C7.0433 30.3915 7.82114 29.6131 8.77759 29.6131H11.986V37.9057C11.986 45.0501 17.7987 50.8628 24.9426 50.8628H103.056C110.2 50.8628 116.012 45.0501 116.012 37.9057V29.6131H119.221C120.177 29.6131 120.955 30.3915 120.955 31.3479L120.956 63.521Z" fill="black"/>
<path d="M112.491 59.9971H15.5082C13.5631 59.9971 11.9863 61.5739 11.9863 63.519C11.9863 65.4641 13.5631 67.0409 15.5082 67.0409H112.491C114.436 67.0409 116.013 65.4641 116.013 63.519C116.013 61.5739 114.436 59.9971 112.491 59.9971Z" fill="black"/>
<path d="M42.357 89.2338C42.2393 89.1679 42.1296 89.104 42.0274 89.0426C43.6857 88.3297 44.5536 86.4545 43.9786 84.7077C43.3703 82.8602 41.3799 81.8549 39.5324 82.4632C38.6575 82.751 34.2732 84.3857 33.8934 88.295C33.6327 90.9787 35.3202 93.361 38.909 95.376C40.0698 96.0276 40.347 96.5166 40.3535 96.6026C40.3898 97.0922 39.4338 98.3817 38.5111 99.0976C36.9589 100.27 36.6505 102.478 37.8223 104.03C38.5146 104.948 39.5686 105.431 40.6358 105.431C41.3749 105.431 42.12 105.199 42.755 104.719C43.2621 104.336 47.6997 100.843 47.3807 96.1277C47.2499 94.1957 46.2718 91.4315 42.357 89.2338Z" fill="black"/>
<path d="M65.7242 89.2338C65.6064 89.1679 65.4968 89.104 65.3946 89.0426C67.0529 88.3297 67.9208 86.4545 67.3458 84.7077C66.7375 82.8602 64.7481 81.8549 62.8996 82.4632C62.0247 82.751 57.6404 84.3857 57.2605 88.295C56.9999 90.9787 58.6874 93.361 62.2762 95.376C63.4369 96.0276 63.7142 96.5166 63.7207 96.6026C63.7569 97.0922 62.801 98.3817 61.8783 99.0976C60.3261 100.27 60.0177 102.478 61.1895 104.03C61.8818 104.948 62.9358 105.431 64.003 105.431C64.7421 105.431 65.4872 105.199 66.1221 104.719C66.6293 104.336 71.0669 100.843 70.7479 96.1277C70.6171 94.1957 69.6395 91.4315 65.7242 89.2338Z" fill="black"/>
<path d="M89.0914 89.2338C88.9736 89.1679 88.8639 89.104 88.7618 89.0426C90.4201 88.3297 91.288 86.4545 90.7129 84.7077C90.1047 82.8602 88.1148 81.8549 86.2668 82.4632C85.3918 82.751 81.0076 84.3857 80.6277 88.295C80.3671 90.9787 82.0546 93.361 85.6434 95.376C86.8041 96.0276 87.0814 96.5166 87.0879 96.6026C87.1241 97.0922 86.1682 98.3817 85.2454 99.0976C83.6933 100.27 83.3849 102.478 84.5567 104.03C85.249 104.948 86.303 105.431 87.3702 105.431C88.1093 105.431 88.8544 105.199 89.4893 104.719C89.9965 104.336 94.4341 100.843 94.1151 96.1277C93.9843 94.1957 93.0067 91.4315 89.0914 89.2338Z" fill="black"/>
</g>
</g>
<defs>
<clipPath id="clip0_838_201">
<rect width="128" height="128" fill="white"/>
</clipPath>
</defs>
</svg>
