<svg width="128" height="128" viewBox="0 0 128 128" fill="none" xmlns="http://www.w3.org/2000/svg">
<path d="M100 94H28C26.3431 94 25 95.3431 25 97V112C25 113.657 26.3431 115 28 115H100C101.657 115 103 113.657 103 112V97C103 95.3431 101.657 94 100 94Z" fill="#AC7365"/>
<path d="M96.516 0H31.485C25.2157 0 20.1152 5.10075 20.1152 11.37V108.41C20.1152 114.679 25.2157 119.78 31.485 119.78H32.8972V124.217C32.8972 126.306 34.5912 128 36.6805 128C38.7697 128 40.4637 126.306 40.4637 124.217V119.78H87.539V124.217C87.539 126.306 89.233 128 91.3222 128C93.4115 128 95.1055 126.306 95.1055 124.217V119.78H96.5162C102.785 119.78 107.886 114.679 107.886 108.41V11.37C107.886 5.10075 102.785 0 96.516 0ZM27.6815 11.37C27.6815 9.27275 29.3877 7.56625 31.485 7.56625H60.218V89.2213H27.6815V11.37ZM100.319 108.41C100.319 110.507 98.6132 112.214 96.516 112.214H31.485C29.3877 112.214 27.6815 110.507 27.6815 108.41V96.788H100.319V108.41ZM100.319 89.2215H67.7845V7.5665H96.516C98.6132 7.5665 100.319 9.273 100.319 11.3702V89.2215Z" fill="black"/>
<path d="M53.9551 39.3633C51.8659 39.3633 50.1719 41.0573 50.1719 43.1465V53.6415C50.1719 55.7308 51.8656 57.4248 53.9551 57.4248C56.0444 57.4248 57.7384 55.7308 57.7384 53.6415V43.1465C57.7384 41.057 56.0446 39.3633 53.9551 39.3633Z" fill="black"/>
<path d="M74.0469 39.3633C71.9577 39.3633 70.2637 41.0573 70.2637 43.1465V53.6415C70.2637 55.731 71.9577 57.425 74.0469 57.425C76.1362 57.425 77.8302 55.731 77.8302 53.6418V43.1465C77.8302 41.057 76.1362 39.3633 74.0469 39.3633Z" fill="black"/>
<path d="M68.2882 100.717H59.7129C57.6237 100.717 55.9297 102.411 55.9297 104.501C55.9297 106.59 57.6237 108.284 59.7129 108.284H68.2882C70.3774 108.284 72.0714 106.59 72.0714 104.501C72.0712 102.411 70.3774 100.717 68.2882 100.717Z" fill="black"/>
</svg>
