<svg width="128" height="128" viewBox="0 0 128 128" fill="none" xmlns="http://www.w3.org/2000/svg">
<path d="M123 69H5V105H123V69Z" fill="#AC7365"/>
<path d="M121.751 64.1671V61.7293C121.751 57.2386 119.426 53.2828 115.919 50.9953V24.4033C115.919 17.4068 110.227 11.7148 103.23 11.7148H24.7698C17.7733 11.7148 12.081 17.4068 12.081 24.4033V50.9951C8.5735 53.2826 6.2485 57.2383 6.2485 61.7291V64.1668C2.657 65.1126 0 68.3876 0 72.2721V100.796C0 105.284 3.5455 108.958 7.98225 109.167V112.542C7.98225 114.609 9.658 116.285 11.725 116.285C13.792 116.285 15.4677 114.609 15.4677 112.542V109.177H112.532V112.542C112.532 114.609 114.208 116.285 116.275 116.285C118.342 116.285 120.018 114.609 120.018 112.542V109.167C124.455 108.958 128 105.283 128 100.796V72.2721C128 68.3873 125.343 65.1126 121.751 64.1671ZM19.5667 24.4033C19.5667 21.5343 21.9008 19.2003 24.7698 19.2003H103.23C106.099 19.2003 108.433 21.5343 108.433 24.4033V48.9201H103.443V42.3231C103.443 37.7056 99.6862 33.9488 95.0685 33.9488H74.929C70.3115 33.9488 66.5547 37.7056 66.5547 42.3231V48.9201H61.4453V42.3231C61.4453 37.7056 57.6885 33.9488 53.071 33.9488H32.9315C28.3137 33.9488 24.5572 37.7056 24.5572 42.3231V48.9201H19.5667V24.4033ZM95.957 42.3228V48.0313C95.957 48.5213 95.5582 48.9198 95.0685 48.9198H74.929C74.439 48.9198 74.0405 48.5211 74.0405 48.0313V42.3228C74.0405 41.8328 74.4393 41.4343 74.929 41.4343H95.0685C95.5585 41.4343 95.957 41.8328 95.957 42.3228ZM53.9595 42.3228V48.0313C53.9595 48.5213 53.5607 48.9198 53.071 48.9198H32.9315C32.4415 48.9198 32.043 48.5211 32.043 48.0313V42.3228C32.043 41.8328 32.4417 41.4343 32.9315 41.4343H53.071C53.5607 41.4343 53.9595 41.8328 53.9595 42.3228ZM13.7343 61.7291C13.7343 58.7936 16.1225 56.4056 19.058 56.4056H108.942C111.878 56.4056 114.266 58.7938 114.266 61.7291V63.8911H13.7343V61.7291ZM120.514 100.796C120.514 101.289 120.113 101.691 119.619 101.691H8.38075C7.88725 101.691 7.4855 101.289 7.4855 100.796V72.2721C7.4855 71.7786 7.887 71.3771 8.38075 71.3771H119.619C120.113 71.3771 120.515 71.7786 120.515 72.2721L120.514 100.796Z" fill="black"/>
</svg>
