<svg width="128" height="128" viewBox="0 0 128 128" fill="none" xmlns="http://www.w3.org/2000/svg">
<g clip-path="url(#clip0_838_133)">
<mask id="mask0_838_133" style="mask-type:luminance" maskUnits="userSpaceOnUse" x="0" y="0" width="128" height="128">
<path d="M128 0H0V128H128V0Z" fill="white"/>
</mask>
<g mask="url(#mask0_838_133)">
<path d="M111 112H17V123H111V112Z" fill="#AC7365"/>
<path d="M31 15C31 10.0294 35.0294 6 40 6H88C92.9706 6 97 10.0294 97 15V24H31V15Z" fill="#AC7365"/>
<path d="M68 54.5C68 53.3 71 50.3333 72.5 49H81L83 56V94.5H68V54.5Z" fill="#AC7365"/>
<path d="M127.968 75.3223L125.849 39.2991C125.298 29.9288 117.514 22.5886 108.127 22.5886H101.377C99.5444 9.83488 88.5467 0.000488281 75.294 0.000488281H52.7058C38.241 0.000488281 26.4625 11.7149 26.3554 26.1548L25.6529 33.8827H6.95312L9.74026 53.3934C10.7196 60.2497 15.8283 65.8124 22.6098 67.3501L19.9582 96.519C19.6547 99.8563 20.4867 103.188 22.2652 105.98C15.9425 107.766 11.2938 113.584 11.2938 120.471V128H116.705V120.471C116.705 113.584 112.057 107.766 105.734 105.98C107.512 103.188 108.344 99.8566 108.041 96.5193L107.822 94.1182H110.246C120.432 94.1179 128.571 85.5688 127.968 75.3223ZM93.0437 105.412H34.9552C30.558 105.412 27.0523 101.649 27.4567 97.2009L33.5552 30.118H94.444L100.542 97.2009C100.94 101.581 97.5092 105.412 93.0437 105.412ZM52.7055 7.52988H75.2937C84.3839 7.52988 91.9896 14.0076 93.739 22.5886H34.26C36.0093 14.0074 43.6153 7.52988 52.7055 7.52988ZM17.1941 52.3287L15.6345 41.4121H24.968L23.3035 59.7224C20.1291 58.612 17.6898 55.7998 17.1941 52.3287ZM109.176 120.471H18.8232C18.8232 116.319 22.2009 112.941 26.3526 112.941H101.647C105.798 112.941 109.176 116.319 109.176 120.471ZM110.246 86.5885H107.138L102.004 30.118H108.127C113.532 30.118 118.015 34.345 118.333 39.7414L120.452 75.7645C120.796 81.6204 116.157 86.5885 110.246 86.5885Z" fill="black"/>
<path d="M75.2941 45.1768C69.0663 45.1768 64 50.2434 64 56.4709V97.8826H86.5882C86.5882 93.4744 86.5882 61.2817 86.5882 56.4709C86.5882 50.2431 81.5214 45.1768 75.2941 45.1768ZM79.0588 90.3532H71.5294V82.8238H79.0588V90.3532ZM79.0588 75.2944H71.5294V67.765H79.0588V75.2944ZM71.5294 60.2356V56.4709C71.5294 54.3951 73.218 52.7062 75.2941 52.7062C77.3697 52.7062 79.0588 54.3951 79.0588 56.4709V60.2356H71.5294Z" fill="black"/>
<path d="M9.41074 17.3469C8.19751 15.8993 7.5294 15.1022 7.5294 13.1769C7.5294 11.2516 8.19751 10.4543 9.41074 9.0069C10.947 7.17399 13.051 4.66344 13.051 0.000488281H5.52156C5.52156 1.92575 4.8532 2.72311 3.63996 4.17052C2.10396 6.00342 0 8.51397 0 13.1769C0 17.8398 2.10396 20.3504 3.63996 22.1833C4.8532 23.6307 5.52156 24.4281 5.52156 26.3533H13.051C13.051 21.6904 10.947 19.1798 9.41074 17.3469Z" fill="black"/>
</g>
</g>
<defs>
<clipPath id="clip0_838_133">
<rect width="128" height="128" fill="white"/>
</clipPath>
</defs>
</svg>
