<svg width="128" height="128" viewBox="0 0 128 128" fill="none" xmlns="http://www.w3.org/2000/svg">
<g clip-path="url(#clip0_838_150)">
<mask id="mask0_838_150" style="mask-type:luminance" maskUnits="userSpaceOnUse" x="0" y="0" width="128" height="128">
<path d="M128 0H0V128H128V0Z" fill="white"/>
</mask>
<g mask="url(#mask0_838_150)">
<path d="M10.5 57C22.6667 57.1667 47.2 57.4 48 57V64L11.5 76.5L5.5 71.5C5 69 4 63.8 4 63C4 62.2 8.33333 58.6667 10.5 57Z" fill="#AC7365"/>
<path d="M76.5 57C68.1667 57.5 51.4 58.2 51 57L50 64L52 72.5L57 79L68.5 80L76.5 71.5V57Z" fill="#AC7365"/>
<path d="M118 57H80V64L115 76.5L122 74.5L124.5 64L118 57Z" fill="#AC7365"/>
<path d="M10.5 57C22.6667 57.1667 47.2 57.4 48 57V64L11.5 76.5L5.5 71.5C5 69 4 63.8 4 63C4 62.2 8.33333 58.6667 10.5 57Z" stroke="black"/>
<path d="M10.5 57C22.6667 57.1667 47.2 57.4 48 57V64L11.5 76.5L5.5 71.5C5 69 4 63.8 4 63C4 62.2 8.33333 58.6667 10.5 57Z" stroke="black" stroke-opacity="0.2"/>
<path d="M76.5 57C68.1667 57.5 51.4 58.2 51 57L50 64L52 72.5L57 79L68.5 80L76.5 71.5V57Z" stroke="black"/>
<path d="M76.5 57C68.1667 57.5 51.4 58.2 51 57L50 64L52 72.5L57 79L68.5 80L76.5 71.5V57Z" stroke="black" stroke-opacity="0.2"/>
<path d="M118 57H80V64L115 76.5L122 74.5L124.5 64L118 57Z" stroke="black"/>
<path d="M118 57H80V64L115 76.5L122 74.5L124.5 64L118 57Z" stroke="black" stroke-opacity="0.2"/>
<path d="M114.575 52.7497C113.03 52.7497 77.1985 52.7497 75.2628 52.7497V49.1247C75.2628 44.2315 72.1216 40.06 67.7503 38.5155V22.1056C72.1221 20.5571 75.2628 16.3832 75.2628 11.4877V7.53546L86.5122 7.49996C88.5832 7.49346 90.2569 5.80922 90.2502 3.73823C90.2439 1.69974 88.5995 0 86.4885 0L41.4887 0.142249C39.4177 0.148749 37.744 1.83299 37.7508 3.90398C37.7573 5.94247 39.4017 7.64221 41.5127 7.64221L52.7382 7.60671V11.4874C52.7382 16.3829 55.8789 20.5569 60.2506 22.1054V38.524C55.8924 40.0755 52.7632 44.2407 52.7632 49.1247V52.7497C48.0089 52.7497 20.3096 52.7497 13.4259 52.7497C6.16119 52.7497 0.250977 58.6602 0.250977 65.9249C0.250977 73.5688 6.53194 79.1143 13.3839 79.114C17.1171 79.114 17.0104 78.3906 45.9267 68.9829C48.1127 76.9093 55.3822 82.7495 63.9941 82.7495C72.6075 82.7495 79.878 76.9073 82.063 68.9788C111.144 78.4405 110.891 79.1138 114.617 79.1138C121.469 79.1135 127.75 73.5691 127.75 65.9246C127.75 58.6599 121.84 52.7497 114.575 52.7497ZM60.2381 7.58296L67.7631 7.55921V11.4874C67.7631 13.5619 66.0753 15.2499 64.0006 15.2499C61.9259 15.2499 60.2381 13.5622 60.2381 11.4874V7.58296ZM60.2629 49.1247C60.2629 47.2865 61.5934 45.7562 63.3414 45.4382C63.7961 45.519 64.2003 45.5217 64.6718 45.4362C66.4261 45.749 67.7628 47.282 67.7628 49.1245V52.7497H60.2629V49.1247ZM15.2201 71.3088C11.5412 72.5348 7.75093 69.8023 7.75093 65.9246C7.75093 62.7954 10.2969 60.2497 13.4259 60.2497H45.2507V61.3026L15.2201 71.3088ZM75.238 64.0059C75.238 70.2056 70.1941 75.2496 63.9941 75.2496C58.1884 75.2496 52.8622 70.7371 52.7504 63.9284V60.2497H75.2378L75.238 64.0059ZM112.781 71.3088L82.738 61.2986V60.2497H114.575C117.705 60.2497 120.25 62.7956 120.25 65.9249C120.25 69.8026 116.46 72.5346 112.781 71.3088Z" fill="black"/>
<path d="M118.221 120.918C110.22 116.784 105.25 108.621 105.25 99.6157V86.7495C105.25 84.6785 103.571 82.9995 101.5 82.9995C99.429 82.9995 97.75 84.6785 97.75 86.7495V99.6157C97.75 111.438 104.275 122.154 114.778 127.581C116.618 128.531 118.881 127.811 119.831 125.971C120.782 124.131 120.061 121.868 118.221 120.918Z" fill="black"/>
<path d="M26.5006 82.9995C24.4296 82.9995 22.7506 84.6785 22.7506 86.7495V99.6157C22.7506 108.621 17.7804 116.784 9.77923 120.918C7.93949 121.868 7.21849 124.131 8.16923 125.971C9.11998 127.811 11.3822 128.531 13.2222 127.581C23.7259 122.154 30.2506 111.438 30.2506 99.6157V86.7495C30.2506 84.6785 28.5716 82.9995 26.5006 82.9995Z" fill="black"/>
<path d="M45.2509 90.2495C43.1799 90.2495 41.5009 91.9285 41.5009 93.9995V105.715C41.5009 111.691 39.2122 117.347 35.0562 121.642C33.6159 123.13 33.6549 125.504 35.1432 126.944C36.6352 128.388 39.0089 128.342 40.4459 126.857C45.9627 121.157 49.0012 113.648 49.0012 105.715V93.9995C49.0009 91.9285 47.3219 90.2495 45.2509 90.2495Z" fill="black"/>
<path d="M86.501 105.715V93.9995C86.501 91.9285 84.822 90.2495 82.751 90.2495C80.68 90.2495 79.001 91.9285 79.001 93.9995V105.715C79.001 113.648 82.0392 121.157 87.5562 126.857C88.997 128.346 91.3705 128.384 92.859 126.944C94.3472 125.504 94.386 123.13 92.946 121.642C88.7897 117.347 86.501 111.691 86.501 105.715Z" fill="black"/>
<path d="M64.001 93.9995C61.93 93.9995 60.251 95.6785 60.251 97.7495V124.25C60.251 126.321 61.93 128 64.001 128C66.072 128 67.751 126.321 67.751 124.25V97.7495C67.751 95.6785 66.072 93.9995 64.001 93.9995Z" fill="black"/>
</g>
</g>
<defs>
<clipPath id="clip0_838_150">
<rect width="128" height="128" fill="white"/>
</clipPath>
</defs>
</svg>
