<svg width="24" height="24" viewBox="0 0 24 24" fill="none" xmlns="http://www.w3.org/2000/svg">
<g clip-path="url(#clip0_838_180)">
<path d="M18.0005 7H1.50046C0.700454 7.8 0.833788 9.33333 1.00045 10H18.5005C18.9005 9.2 18.3338 7.66667 18.0005 7Z" fill="#AC7365"/>
<path d="M11 6.92188C11 5.86044 11.8604 5 12.9219 5C13.9833 5 14.8438 5.88462 14.8438 6.92188C14.8438 8.51562 13.4141 9.03125 13.4141 11.3281" stroke="black" stroke-width="0.7" stroke-miterlimit="10" stroke-linecap="round" stroke-linejoin="round"/>
<path d="M15.461 16.1797H11.3828V12.207C11.3828 11.7216 11.7764 11.3281 12.2617 11.3281H14.5821C15.0675 11.3281 15.461 11.7216 15.461 12.207V16.1797Z" fill="#AC7365" stroke="black" stroke-width="0.7" stroke-miterlimit="10" stroke-linecap="round" stroke-linejoin="round"/>
<path d="M13.4141 11.3281V12.6758" stroke="black" stroke-width="0.7" stroke-miterlimit="10" stroke-linecap="round" stroke-linejoin="round"/>
<path d="M12.7656 12.4531H14.0781" stroke="black" stroke-width="0.7" stroke-miterlimit="10" stroke-linecap="round" stroke-linejoin="round"/>
<mask id="mask0_838_180" style="mask-type:luminance" maskUnits="userSpaceOnUse" x="0" y="0" width="24" height="24">
<path d="M0 0H24V24H0V0Z" fill="white"/>
</mask>
<g mask="url(#mask0_838_180)">
<path d="M6.83806 15.3433H2.64846C2.38254 15.3433 2.16504 15.5609 2.16504 15.8268V18.5658C2.16504 18.8316 2.38254 19.0492 2.64846 19.0492H6.83806C7.10398 19.0492 7.32148 18.8316 7.32148 18.5658V15.8268C7.32148 15.5609 7.10398 15.3433 6.83806 15.3433Z" stroke="black" stroke-width="0.703125" stroke-miterlimit="10" stroke-linecap="round" stroke-linejoin="round"/>
<path d="M6.03237 15.3433H2.64851C2.38259 15.3433 2.16504 15.5609 2.16504 15.8268V18.5658C2.16504 18.8316 2.38259 19.0492 2.64851 19.0492H6.03237V15.3433Z" fill="#AC7365" stroke="black" stroke-width="0.703125" stroke-miterlimit="10" stroke-linecap="round" stroke-linejoin="round"/>
<path d="M6.07549 13.0015L4.13876 11.0648C3.95074 10.8768 3.64305 10.8768 3.45508 11.0648L0.492539 14.0273C0.30457 14.2153 0.30457 14.523 0.492539 14.711L2.16462 16.3831V15.8266C2.16462 15.5607 2.38216 15.3431 2.64808 15.3431H4.41757L6.07549 13.6852C6.26351 13.4972 6.26351 13.1896 6.07549 13.0015Z" stroke="black" stroke-width="0.703125" stroke-miterlimit="10" stroke-linecap="round" stroke-linejoin="round"/>
<path d="M2.16465 15.8264C2.16465 15.5605 2.3822 15.3429 2.64807 15.3429H4.4176L5.50576 14.2547L2.88535 11.6343L0.492574 14.0271C0.304559 14.2151 0.304559 14.5228 0.492574 14.7108L2.16465 16.3829V15.8264Z" fill="#AC7365" stroke="black" stroke-width="0.703125" stroke-miterlimit="10" stroke-linecap="round" stroke-linejoin="round"/>
<path d="M3.61813 3.12402C3.61813 3.12402 3.15679 3.74699 3.61813 4.23974C4.07948 4.73249 3.61813 5.35545 3.61813 5.35545" stroke="black" stroke-width="0.703125" stroke-miterlimit="10" stroke-linecap="round" stroke-linejoin="round"/>
<path d="M5.90329 3.12402C5.90329 3.12402 5.44194 3.74699 5.90329 4.23974C6.36463 4.73249 5.90329 5.35545 5.90329 5.35545" stroke="black" stroke-width="0.703125" stroke-miterlimit="10" stroke-linecap="round" stroke-linejoin="round"/>
<path d="M8.18747 3.12402C8.18747 3.12402 7.72612 3.74699 8.18747 4.23974C8.64881 4.73249 8.18747 5.35545 8.18747 5.35545" stroke="black" stroke-width="0.703125" stroke-miterlimit="10" stroke-linecap="round" stroke-linejoin="round"/>
<path d="M10.4726 20.8763H17.1108C17.3559 20.8763 17.5923 20.7827 17.769 20.6128C18.0953 20.2991 18.3631 19.925 18.5538 19.5089C18.6524 19.2939 18.4968 19.0488 18.2603 19.0488H1.04427C0.807788 19.0488 0.65221 19.2939 0.750788 19.5089C0.941569 19.925 1.20932 20.2991 1.53561 20.6128C1.71224 20.7827 1.94868 20.8763 2.19378 20.8763H8.83199" stroke="black" stroke-width="0.703125" stroke-miterlimit="10" stroke-linecap="round" stroke-linejoin="round"/>
<path d="M21.922 13.8906C21.5179 15.0496 20.4147 15.8837 19.1197 15.8837C18.5293 15.8837 17.9792 15.7097 17.5165 15.4113C17.3163 15.9003 17.0881 16.3722 16.834 16.825C17.5053 17.2191 18.2865 17.4454 19.1197 17.4454C21.6171 17.4454 23.6488 15.4137 23.6488 12.9163C23.6488 10.4189 21.6171 8.38721 19.1197 8.38721C18.8627 8.38721 18.6107 8.4091 18.3652 8.4504C18.4376 8.96256 18.4822 9.4847 18.4954 10.0156C18.6968 9.97234 18.9055 9.94899 19.1197 9.94899C20.5268 9.94899 21.7074 10.9337 22.0107 12.25" stroke="black" stroke-width="0.703125" stroke-miterlimit="10" stroke-linecap="round" stroke-linejoin="round"/>
</g>
<path d="M18.2216 7.61936C18.1579 7.31008 17.9061 7.09131 17.6172 7.09131H1.68664C1.39775 7.09131 1.14599 7.31008 1.08219 7.61936C0.900688 8.49962 0.804688 9.41542 0.804688 10.3559C0.804688 11.3977 0.922484 12.4092 1.14378 13.3756C1.20669 13.3127 2.69071 11.8287 3.45482 11.0646C3.64283 10.8766 3.95047 10.8766 4.13849 11.0646L6.07522 13.0013C6.26324 13.1893 6.26324 13.497 6.07522 13.685L4.4173 15.3429H6.83741C7.10333 15.3429 7.32083 15.5605 7.32083 15.8264V18.5653C7.32083 18.8312 7.10333 19.0487 6.83741 19.0487H14.4947C14.9915 19.0487 15.464 18.811 15.7877 18.3972C17.4777 16.2364 18.4992 13.4273 18.4992 10.3559C18.4992 9.41542 18.4031 8.49962 18.2216 7.61936Z" stroke="black" stroke-width="0.703125" stroke-miterlimit="10" stroke-linecap="round" stroke-linejoin="round"/>
<path d="M18.4961 10.1123H0.80778C0.806374 10.1934 0.804688 10.2745 0.804688 10.356C0.804688 11.3978 0.92253 12.4093 1.14378 13.3757C1.20669 13.3128 2.6907 11.8288 3.45481 11.0647C3.64288 10.8767 3.95047 10.8767 4.13849 11.0647L6.07522 13.0014C6.26324 13.1894 6.26324 13.4971 6.07522 13.6851L4.4173 15.343H6.83741C7.10333 15.343 7.32088 15.5605 7.32088 15.8265V18.5654C7.32088 18.8313 7.10333 19.0488 6.83741 19.0488H14.4947C14.9915 19.0488 15.464 18.8111 15.7877 18.3973C17.4777 16.2365 18.4992 13.4274 18.4992 10.356C18.4992 10.2745 18.4975 10.1934 18.4961 10.1123Z" stroke="black" stroke-width="0.703125" stroke-miterlimit="10" stroke-linecap="round" stroke-linejoin="round"/>
</g>
<defs>
<clipPath id="clip0_838_180">
<rect width="24" height="24" fill="white"/>
</clipPath>
</defs>
</svg>
