<svg width="128" height="128" viewBox="0 0 128 128" fill="none" xmlns="http://www.w3.org/2000/svg">
<g clip-path="url(#clip0_838_233)">
<mask id="mask0_838_233" style="mask-type:luminance" maskUnits="userSpaceOnUse" x="0" y="0" width="128" height="128">
<path d="M128 0H0V128H128V0Z" fill="white"/>
</mask>
<g mask="url(#mask0_838_233)">
<path d="M19 18.5L92 19.5L94 79H19C15.8333 80 9.5 82.1 9.5 82.5C9.5 82.9 5.5 87.3333 3.5 89.5V30.5L9.5 21L19 18.5Z" fill="#AC7365"/>
<path d="M109.25 0C100.195 0 92.6195 6.452 90.8773 15H18.75C8.41125 15 0 23.4113 0 33.75V94.25C0 99.29 2.0025 103.868 5.24925 107.241C2.098 109.237 0 112.752 0 116.75C0 122.953 5.04675 128 11.25 128H109.25C119.589 128 128 119.589 128 109.25C128 103.123 125.045 97.6737 120.487 94.25C125.045 90.8263 128 85.377 128 79.25V18.75C128 8.41125 119.589 0 109.25 0ZM109.25 7.5C115.453 7.5 120.5 12.5468 120.5 18.75V64.2602C117.364 61.9007 113.468 60.5 109.25 60.5C105.032 60.5 101.133 61.901 97.9975 64.2607L97.998 18.75C97.998 18.7478 97.9977 18.7457 97.9977 18.7435C98.0012 12.5432 103.049 7.5 109.25 7.5ZM18.75 22.5H90.5005L90.5 75.5H18.75C14.5322 75.5 10.636 76.9007 7.5 79.2602V33.75C7.5 27.5468 12.5468 22.5 18.75 22.5ZM109.25 90.5H18.75C16.679 90.5 15 92.179 15 94.25C15 96.321 16.679 98 18.75 98H109.25C115.453 98 120.5 103.047 120.5 109.25C120.5 115.453 115.453 120.5 109.25 120.5H11.25C9.18225 120.5 7.5 118.818 7.5 116.75C7.5 114.682 9.18225 113 11.25 113H109.25C111.321 113 113 111.321 113 109.25C113 107.179 111.321 105.5 109.25 105.5H18.75C12.5468 105.5 7.5 100.453 7.5 94.25C7.5 88.0468 12.5468 83 18.75 83H109.25C111.321 83 113 81.321 113 79.25C113 77.179 111.321 75.5 109.25 75.5H98.645C100.193 71.1355 104.361 68 109.25 68C115.453 68 120.5 73.0468 120.5 79.25C120.5 85.4532 115.453 90.5 109.25 90.5Z" fill="black"/>
</g>
</g>
<defs>
<clipPath id="clip0_838_233">
<rect width="128" height="128" fill="white"/>
</clipPath>
</defs>
</svg>
