<svg width="128" height="128" viewBox="0 0 128 128" fill="none" xmlns="http://www.w3.org/2000/svg">
<g clip-path="url(#clip0_838_97)">
<mask id="mask0_838_97" style="mask-type:luminance" maskUnits="userSpaceOnUse" x="0" y="0" width="128" height="128">
<path d="M128 0H0V128H128V0Z" fill="white"/>
</mask>
<g mask="url(#mask0_838_97)">
<path d="M35.0001 34.5C33.5001 37.5 36.5001 49 36.5001 51.5L58.5 53.5L75 55.5L86 52.5L92.5 56.5L91.5 67V75L106.5 72.5L114.5 75L122 73.5L124 68.5L122 56.5C123 50.8333 125 39.3 125 38.5C125 37.7 123 27.8333 122 23L125 12.5L123 6L116.5 3.5L105 6L79 2.5L53 6L41.5 2.5L35.0001 10L37.5 20C37.1667 23.8333 36.2001 32.1 35.0001 34.5Z" fill="#AC7365"/>
<path d="M127.608 63.5335L125.797 56.5755C128.169 45.2405 128.155 33.3212 125.756 21.9845L127.608 14.866C128.678 10.7597 127.526 6.51621 124.525 3.51496C121.523 0.51246 117.277 -0.642041 113.166 0.427459L106.155 2.25446C105.544 2.41346 104.898 2.43671 104.287 2.32246C87.4703 -0.827291 70.437 -0.772791 53.6473 2.48321L45.7408 0.427459C41.6335 -0.642791 37.3893 0.509709 34.3875 3.50996C31.3845 6.51121 30.2298 10.7562 31.2993 14.8665L33.141 21.9315C31.154 31.3292 30.7953 40.8687 32.0668 50.3557C28.9513 50.739 25.841 51.2307 22.7393 51.8325L14.8328 49.7745C10.7238 48.7047 6.47954 49.8587 3.47754 52.86C0.475536 55.8615 -0.677714 60.1055 0.392036 64.213L2.23304 71.2805C-0.157464 82.6137 -0.163464 94.534 2.21604 105.874L0.391286 112.882C-0.678214 116.989 0.475286 121.233 3.47729 124.235C6.47904 127.236 10.7235 128.39 14.8323 127.32L22.241 125.391C30.9915 127.131 39.796 128 48.6035 128C57.3888 128 66.1745 127.134 74.9015 125.403L82.26 127.319C86.3678 128.388 90.6133 127.235 93.6153 124.233C96.6173 121.232 97.7708 116.988 96.7008 112.88L94.889 105.924C96.8248 96.67 97.1695 87.0285 95.927 77.6327C99.2423 77.2275 102.551 76.7015 105.81 76.0562L113.167 77.9702C114.177 78.2332 115.194 78.3622 116.2 78.3622C119.287 78.3622 122.259 77.1497 124.523 74.8857C127.525 71.8845 128.678 67.64 127.608 63.5335ZM88.3115 118.932C87.7835 119.46 86.3203 120.628 84.1493 120.063L75.953 117.929C75.398 117.785 74.8173 117.769 74.2553 117.885C57.2148 121.377 39.9325 121.373 22.8885 117.873C22.3263 117.757 21.745 117.772 21.1893 117.917L12.942 120.064C10.7718 120.629 9.30828 119.461 8.78004 118.933C8.25153 118.405 7.08379 116.942 7.64879 114.771L9.69829 106.901C9.84779 106.326 9.85904 105.725 9.73054 105.145C7.32954 94.305 7.33529 82.8487 9.74729 72.0157C9.87654 71.435 9.86579 70.832 9.71579 70.2562L7.64979 62.3235C7.08454 60.1532 8.25229 58.6902 8.78079 58.162C9.30929 57.6337 10.7725 56.4665 12.943 57.031L21.6795 59.3047C22.2295 59.448 22.805 59.4642 23.3618 59.3525C27.755 58.4712 32.1665 57.8242 36.5873 57.408C36.6785 57.403 36.77 57.3932 36.8618 57.3815C48.5685 56.3045 60.3378 56.8567 71.9988 59.041C73.6873 59.357 75.464 59.2937 77.1373 58.858L84.1493 57.0322C86.3185 56.4672 87.7833 57.6347 88.3115 58.163C88.84 58.6912 90.008 60.1542 89.443 62.3242L87.3638 70.3087C87.2135 70.8852 87.2028 71.489 87.3328 72.0705C89.7525 82.906 89.7665 94.3615 87.3735 105.198C87.2458 105.775 87.257 106.381 87.4065 106.953L89.4423 114.771C90.0078 116.941 88.84 118.404 88.3115 118.932ZM119.219 69.5842C118.691 70.1125 117.228 71.2802 115.056 70.7145L106.861 68.5825C106.306 68.4382 105.726 68.423 105.164 68.538C101.867 69.2135 98.512 69.76 95.1488 70.1745L96.7013 64.2135C97.7708 60.1057 96.617 55.8617 93.615 52.8605C90.6128 49.8592 86.3675 48.706 82.2595 49.7757L75.2473 51.6015C74.635 51.761 73.9888 51.7847 73.3803 51.6707C62.1505 49.5672 50.826 48.8947 39.543 49.648C38.302 40.641 38.6713 31.5805 40.6558 22.6662C40.7853 22.0852 40.7743 21.482 40.6243 20.906L38.5573 12.977C37.9923 10.8052 39.161 9.34171 39.6898 8.81321C40.218 8.28521 41.6805 7.11871 43.8515 7.68396L52.5888 9.95596C53.1385 10.099 53.7133 10.1152 54.27 10.0035C70.3893 6.77171 86.7528 6.66696 102.908 9.69296C104.597 10.0087 106.373 9.94596 108.045 9.51071L115.056 7.68396C117.227 7.11946 118.692 8.28771 119.22 8.81646C119.748 9.34446 120.915 10.807 120.35 12.9772L118.272 20.963C118.122 21.539 118.112 22.1425 118.242 22.7235C120.661 33.5597 120.675 45.014 118.282 55.8482C118.155 56.425 118.165 57.0317 118.315 57.6032L120.35 65.4227C120.916 67.5927 119.748 69.056 119.219 69.5842Z" fill="black"/>
<path d="M112.499 39.1765V39.1723C112.494 30.0748 109.244 24.9203 108.873 24.362C108.245 23.2205 106.5 21.7545 103.751 23.254C101.001 24.7538 102.627 28.5115 102.627 28.5115L102.604 28.4778C102.629 28.5155 104.998 32.3365 105 39.1838C104.998 46.0308 102.628 49.8518 102.604 49.8895L102.627 49.8558C102.627 49.8558 100.593 53.6653 103.751 55.1838C107 56.746 108.873 54.0055 108.873 54.0055C109.244 53.4475 112.495 48.2928 112.499 39.1955V39.1913C112.499 39.1888 112.499 39.1863 112.499 39.1838C112.499 39.1813 112.499 39.1793 112.499 39.1765Z" fill="black"/>
<path d="M81.2582 88.7038L81.2579 88.6996C81.2532 79.6021 78.0027 74.4476 77.6317 73.8893C77.0042 72.7478 75.2592 71.2819 72.5094 72.7814C69.7594 74.2811 71.3854 78.0389 71.3854 78.0389L71.3632 78.0051C71.3874 78.0428 73.7567 81.8638 73.7584 88.7111C73.7567 95.5581 71.3872 99.3791 71.3632 99.4168L71.3854 99.3831C71.3854 99.3831 69.3522 103.193 72.5102 104.711C75.7592 106.273 77.6317 103.533 77.6317 103.533C78.0027 102.975 81.2534 97.8201 81.2579 88.7228L81.2582 88.7186C81.2582 88.7161 81.2582 88.7136 81.2582 88.7111C81.2582 88.7086 81.2582 88.7063 81.2582 88.7038Z" fill="black"/>
</g>
</g>
<defs>
<clipPath id="clip0_838_97">
<rect width="128" height="128" fill="white"/>
</clipPath>
</defs>
</svg>
