<svg width="128" height="128" viewBox="0 0 128 128" fill="none" xmlns="http://www.w3.org/2000/svg">
<g clip-path="url(#clip0_838_84)">
<mask id="mask0_838_84" style="mask-type:luminance" maskUnits="userSpaceOnUse" x="0" y="0" width="128" height="128">
<path d="M128 0H0V128H128V0Z" fill="white"/>
</mask>
<g mask="url(#mask0_838_84)">
<path d="M35 96.5001C36.5968 96.8195 44.2497 99.285 50.0695 101.199C52.619 102.038 55.3718 102.01 57.9003 101.11C62.8377 99.3527 69.152 97.1161 71 96.5001C74 95.5001 89 102.5 90.5 102.5C91.7 102.5 102.333 96.8334 107.5 94" stroke="#AC7365" stroke-width="13"/>
<path d="M116.75 15H112.75V11.25C112.75 5.04675 107.703 0 101.5 0H26.5C20.2968 0 15.25 5.04675 15.25 11.25V15H7.5V11.25C7.5 9.179 5.821 7.5 3.75 7.5C1.679 7.5 0 9.179 0 11.25V41.25C0 43.321 1.679 45 3.75 45C5.821 45 7.5 43.321 7.5 41.25V37.5H15.25V78.75C15.25 80.821 16.929 82.5 19 82.5H30.25V124.25C30.25 126.321 31.929 128 34 128H109C111.071 128 112.75 126.321 112.75 124.25V37.5H116.75C122.953 37.5 128 32.4532 128 26.25C128 20.0468 122.953 15 116.75 15ZM101.5 7.5C103.568 7.5 105.25 9.18225 105.25 11.25V85.7725C101.889 86.291 99.7028 87.4563 97.8558 88.441C95.6973 89.5915 93.9925 90.5003 90.2395 90.5003C86.4863 90.5003 84.7815 89.5915 82.623 88.441C80.165 87.1305 77.106 85.5 71.479 85.5C65.8545 85.5 62.797 87.1308 60.3402 88.4413C58.184 89.5915 56.4808 90.5 52.7313 90.5C48.9868 90.5 47.2855 89.5918 45.1317 88.442C43.2875 87.4575 41.1045 86.2922 37.75 85.7732V11.25C37.75 9.93575 37.5235 8.67325 37.1075 7.5H101.5ZM37.75 93.4153C39.2155 93.7885 40.3305 94.3805 41.5995 95.058C44.0547 96.3687 47.11 98 52.7313 98C58.3558 98 61.4132 96.3692 63.87 95.0587C66.0262 93.9085 67.7297 93 71.479 93C75.232 93 76.9368 93.9087 79.0953 95.0592C81.5533 96.3695 84.6123 98 90.2395 98C95.8665 98 98.9255 96.3695 101.383 95.0592C102.658 94.38 103.777 93.787 105.25 93.4135V100.772C101.889 101.291 99.7028 102.456 97.8558 103.441C95.6973 104.592 93.9925 105.5 90.2395 105.5C86.4863 105.5 84.7815 104.592 82.623 103.441C80.165 102.131 77.106 100.5 71.479 100.5C65.8545 100.5 62.797 102.131 60.3402 103.441C58.184 104.592 56.4808 105.5 52.7313 105.5C48.9868 105.5 47.2855 104.592 45.1317 103.442C43.2875 102.458 41.1045 101.292 37.75 100.773V93.4153ZM22.75 11.25C22.75 9.18225 24.4323 7.5 26.5 7.5C28.5677 7.5 30.25 9.18225 30.25 11.25V15H22.75V11.25ZM7.5 22.5H30.25V30H7.5V22.5ZM22.75 75V37.5H30.25V75H22.75ZM37.75 120.5V108.415C39.2155 108.789 40.3305 109.38 41.5995 110.058C44.0547 111.369 47.11 113 52.7313 113C58.3558 113 61.4132 111.369 63.87 110.059C66.0262 108.908 67.7297 108 71.479 108C75.232 108 76.9368 108.909 79.0953 110.059C81.5533 111.369 84.6123 113 90.2395 113C95.8665 113 98.9255 111.369 101.383 110.059C102.658 109.38 103.777 108.787 105.25 108.413V120.5H37.75ZM116.75 30H112.75V22.5H116.75C118.818 22.5 120.5 24.1823 120.5 26.25C120.5 28.3177 118.818 30 116.75 30Z" fill="black"/>
</g>
</g>
<defs>
<clipPath id="clip0_838_84">
<rect width="128" height="128" fill="white"/>
</clipPath>
</defs>
</svg>
