<svg width="128" height="128" viewBox="0 0 128 128" fill="none" xmlns="http://www.w3.org/2000/svg">
<g clip-path="url(#clip0_838_106)">
<mask id="mask0_838_106" style="mask-type:luminance" maskUnits="userSpaceOnUse" x="0" y="0" width="128" height="128">
<path d="M128 0H0V128H128V0Z" fill="white"/>
</mask>
<g mask="url(#mask0_838_106)">
<path d="M94 41H20V101H94V41Z" fill="#AC7365"/>
<path d="M116.75 22.5001H73.0533L89.1515 6.40188C90.616 4.93738 90.616 2.56312 89.1515 1.09862C87.6872 -0.365874 85.3128 -0.365874 83.8483 1.09862L64 20.9469L44.1517 1.09837C42.6875 -0.366124 40.313 -0.366124 38.8485 1.09837C37.384 2.56287 37.384 4.93713 38.8485 6.40163L54.9468 22.5001H11.25C5.04675 22.5001 0 27.5469 0 33.7501V109.25C0 115.453 5.04675 120.5 11.25 120.5H22.5V124.25C22.5 126.321 24.179 128 26.25 128C28.321 128 30 126.321 30 124.25V120.5H98V124.25C98 126.321 99.679 128 101.75 128C103.821 128 105.5 126.321 105.5 124.25V120.5H116.75C122.953 120.5 128 115.453 128 109.25V33.7501C128 27.5469 122.953 22.5001 116.75 22.5001ZM120.5 109.25C120.5 111.318 118.818 113 116.75 113H11.25C9.18225 113 7.5 111.318 7.5 109.25V33.7501C7.5 31.6824 9.18225 30.0001 11.25 30.0001H116.75C118.818 30.0001 120.5 31.6824 120.5 33.7501V109.25Z" fill="black"/>
<path d="M94.25 37.5H18.75C16.679 37.5 15 39.179 15 41.25V101.75C15 103.821 16.679 105.5 18.75 105.5H94.25C96.321 105.5 98 103.821 98 101.75V41.25C98 39.179 96.321 37.5 94.25 37.5ZM90.5 98H22.5V45H90.5V98Z" fill="black"/>
<path d="M109.25 52.5C111.321 52.5 113 50.8211 113 48.75C113 46.6789 111.321 45 109.25 45C107.179 45 105.5 46.6789 105.5 48.75C105.5 50.8211 107.179 52.5 109.25 52.5Z" fill="black"/>
<path d="M109.25 67.5C111.321 67.5 113 65.8211 113 63.75C113 61.6789 111.321 60 109.25 60C107.179 60 105.5 61.6789 105.5 63.75C105.5 65.8211 107.179 67.5 109.25 67.5Z" fill="black"/>
<path d="M109.25 75C107.179 75 105.5 76.679 105.5 78.75V94.25C105.5 96.321 107.179 98 109.25 98C111.321 98 113 96.321 113 94.25V78.75C113 76.679 111.321 75 109.25 75Z" fill="black"/>
</g>
</g>
<defs>
<clipPath id="clip0_838_106">
<rect width="128" height="128" fill="white"/>
</clipPath>
</defs>
</svg>
