<svg width="128" height="128" viewBox="0 0 128 128" fill="none" xmlns="http://www.w3.org/2000/svg">
<g clip-path="url(#clip0_838_117)">
<mask id="mask0_838_117" style="mask-type:luminance" maskUnits="userSpaceOnUse" x="0" y="0" width="128" height="128">
<path d="M128 0H0V128H128V0Z" fill="white"/>
</mask>
<g mask="url(#mask0_838_117)">
<path d="M33 18H4V71H33V18Z" fill="#AC7365"/>
<path d="M116.75 53H41.25C39.9353 53 38.6738 53.2288 37.5 53.645V22.5H41.25C47.4532 22.5 52.5 17.4532 52.5 11.25C52.5 5.04675 47.4532 0 41.25 0H11.25C5.04675 0 0 5.04675 0 11.25V18.75V64.25C0 67.198 0.27775 69.971 0.82475 72.4945L0.82525 72.4975C0.826 72.5017 0.827 72.5058 0.828 72.51C0.831 72.5235 0.83325 72.5375 0.83625 72.551C0.837 72.5545 0.83825 72.5577 0.839 72.5612C2.7725 81.9897 8.00625 90.5172 15.593 96.5867C19.6568 99.8137 21.2985 104.78 19.776 109.238C19.7722 109.249 19.769 109.259 19.7652 109.27L15.1903 123.07C14.3873 125.493 16.1935 128 18.75 128H94.25C96.321 128 98 126.321 98 124.25V100.976C108.348 95.7123 115.981 86.3645 119.016 75.2708C124.137 74.2193 128 69.6772 128 64.25C128 58.0468 122.953 53 116.75 53ZM7.5 11.25C7.5 9.18225 9.18225 7.5 11.25 7.5H41.25C43.3177 7.5 45 9.18225 45 11.25C45 13.3177 43.3177 15 41.25 15C40.5098 15 8.17725 15 7.5 15V11.25ZM7.5 22.5H30V68H7.69175C7.4275 65.5295 7.5 67.7465 7.5 22.5ZM90.5 120.5H23.9438L26.8792 111.645C29.4672 104.042 26.6445 95.7857 20.2675 90.7217C15.2752 86.7277 11.526 81.4315 9.42475 75.5C21.3545 75.5 33.1643 75.5 39.0563 75.5C41.3343 83.4777 46.1207 90.6985 52.7505 96.075C60.2447 102.153 69.656 105.5 79.25 105.5C83.1075 105.5 86.8745 104.973 90.5 103.937V120.5ZM79.25 98C64.5575 98 51.637 88.775 46.9215 75.5H111.094C106.412 88.8575 93.5975 98 79.25 98ZM116.75 68H115.992C115.982 68 115.971 68 115.961 68C109.971 68 40.9978 68 37.5 68V64.25C37.5 62.1823 39.1823 60.5 41.25 60.5H116.75C118.818 60.5 120.5 62.1823 120.5 64.25C120.5 66.3177 118.818 68 116.75 68Z" fill="black"/>
</g>
</g>
<defs>
<clipPath id="clip0_838_117">
<rect width="128" height="128" fill="white"/>
</clipPath>
</defs>
</svg>
